mtllib Watchtower.mtl
o Default
v 0 0 3.0000500679016113
v 0 3 3.0000500679016113
v 3 3 3.0000500679016113
v 3 0 3.0000500679016113
v -3 0 3.0000500679016113
v 0 3 3.0000500679016113
v -3 3 3.0000500679016113
v 0 0 3.0000500679016113
v -3 3 3.0000500679016113
v 0 6 3.0000500679016113
v -3 6 3.0000500679016113
v 0 3 3.0000500679016113
v 0 3 3.0000500679016113
v 3 6 3.0000500679016113
v 0 6 3.0000500679016113
v 3 3 3.0000500679016113
v 0 6 3.0000500679016113
v 3 9 3.0000500679016113
v 0 9 3.0000500679016113
v 3 6 3.0000500679016113
v -3 6 3.0000500679016113
v 0 9 3.0000500679016113
v -3 9 3.0000500679016113
v 0 6 3.0000500679016113
v -3 0 0.00004999999873689376
v -3 3 3.0000500679016113
v -3 3 0.00004999999873689376
v -3 0 3.0000500679016113
v -3 3 0.00004999999873689376
v -3 6 3.0000500679016113
v -3 6 0.00004999999873689376
v -3 3 3.0000500679016113
v -3 6 0.00004999999873689376
v -3 9 3.0000500679016113
v -3 9 0.00004999999873689376
v -3 6 3.0000500679016113
v -3 6 -2.9999499320983887
v -3 9 0.00004999999873689376
v -3 9 -2.9999499320983887
v -3 6 0.00004999999873689376
v -3 3 -2.9999499320983887
v -3 6 0.00004999999873689376
v -3 6 -2.9999499320983887
v -3 3 0.00004999999873689376
v -3 0 -2.9999499320983887
v -3 3 0.00004999999873689376
v -3 3 -2.9999499320983887
v -3 0 0.00004999999873689376
v 0 6 -2.9999499320983887
v -3 9 -2.9999499320983887
v 0 9 -2.9999499320983887
v -3 6 -2.9999499320983887
v 0 3 -2.9999499320983887
v -3 6 -2.9999499320983887
v 0 6 -2.9999499320983887
v -3 3 -2.9999499320983887
v 0 0 -2.9999499320983887
v -3 3 -2.9999499320983887
v 0 3 -2.9999499320983887
v -3 0 -2.9999499320983887
v 3 0 -2.9999499320983887
v 0 3 -2.9999499320983887
v 3 3 -2.9999499320983887
v 0 0 -2.9999499320983887
v 3 3 -2.9999499320983887
v 0 6 -2.9999499320983887
v 3 6 -2.9999499320983887
v 0 3 -2.9999499320983887
v 3 6 -2.9999499320983887
v 0 9 -2.9999499320983887
v 3 9 -2.9999499320983887
v 0 6 -2.9999499320983887
v 3 0 0.00004999999873689376
v 3 3 -2.9999499320983887
v 3 3 0.00004999999873689376
v 3 0 -2.9999499320983887
v 3 3 0.00004999999873689376
v 3 6 -2.9999499320983887
v 3 6 0.00004999999873689376
v 3 3 -2.9999499320983887
v 3 6 0.00004999999873689376
v 3 9 -2.9999499320983887
v 3 9 0.00004999999873689376
v 3 6 -2.9999499320983887
v 3 0 3.0000500679016113
v 3 3 0.00004999999873689376
v 3 3 3.0000500679016113
v 3 0 0.00004999999873689376
v 3 3 3.0000500679016113
v 3 6 0.00004999999873689376
v 3 6 3.0000500679016113
v 3 3 0.00004999999873689376
v 3 6 3.0000500679016113
v 3 9 0.00004999999873689376
v 3 9 3.0000500679016113
v 3 6 0.00004999999873689376
v -4 9 3.0000500679016113
v -3 10 3.0000500679016113
v -4 10 3.0000500679016113
v -3 9 3.0000500679016113
v -3 9 3.0000500679016113
v -3 10 4.000050067901611
v -3 10 3.0000500679016113
v -3 9 4.000050067901611
v -3 9 -3.9999499320983887
v -3 10 -2.9999499320983887
v -3 10 -3.9999499320983887
v -3 9 -2.9999499320983887
v 3 9 3.0000500679016113
v 4 10 3.0000500679016113
v 3 10 3.0000500679016113
v 4 9 3.0000500679016113
v 3 9 2.0000500679016113
v 3 10 0.00004999999873689376
v 3 10 2.0000500679016113
v 3 9 0.00004999999873689376
v 3 9 4.000050067901611
v 3 10 2.0000500679016113
v 3 10 4.000050067901611
v 3 9 2.0000500679016113
v 3 9 -1.9999500513076782
v 3 10 -3.9999499320983887
v 3 10 -1.9999500513076782
v 3 9 -3.9999499320983887
v 3 9 0.00004999999873689376
v 3 10 -1.9999500513076782
v 3 10 0.00004999999873689376
v 3 9 -1.9999500513076782
v 0 9 -2.9999499320983887
v -4 10 -2.9999499320983887
v 0 10 -2.9999499320983887
v -4 9 -2.9999499320983887
v 4 9 -2.9999499320983887
v 2 10 -2.9999499320983887
v 4 10 -2.9999499320983887
v 2 9 -2.9999499320983887
v 2 9 -2.9999499320983887
v 0 10 -2.9999499320983887
v 2 10 -2.9999499320983887
v 0 9 -2.9999499320983887
v -3 9 -2.9999499320983887
v -3 10 3.0000500679016113
v -3 10 -2.9999499320983887
v -3 9 3.0000500679016113
v -3 9 3.0000500679016113
v 3 10 3.0000500679016113
v -3 10 3.0000500679016113
v 3 9 3.0000500679016113
v 1 10 -1.999750018119812
v 3 10 -2.999650001525879
v 1 10 -2.999850034713745
v 3 10 -1.9999500513076782
v 1 10 -0.999750018119812
v 3 10 -1.9999500513076782
v 1 10 -1.999750018119812
v 3 10 -0.999750018119812
v 1 10 0.00011668100341921672
v 3 10 -0.999750018119812
v 1 10 -0.999750018119812
v 3 10 0.00004999999873689376
v 1 10 1.0000499486923218
v 3 10 0.00004999999873689376
v 1 10 0.00011668100341921672
v 3 10 1.0000499486923218
v 1 10 1.9999834299087524
v 3 10 1.0000499486923218
v 1 10 1.0000499486923218
v 3 10 2.0000500679016113
v -3 10 -0.999750018119812
v -1 10 -1.999650001525879
v -3 10 -1.999650001525879
v -1 10 -0.999750018119812
v -3 10 -1.999650001525879
v -1 10 -2.9999499320983887
v -3 10 -2.9999499320983887
v -1 10 -1.999650001525879
v 1 10 2.9999165534973145
v 3 10 2.0000500679016113
v 1 10 1.9999834299087524
v 3 10 3.0000500679016113
v -3 10 0.0001500000071246177
v -1 10 -0.999750018119812
v -3 10 -0.999750018119812
v -1 10 0.0001500000071246177
v -3 10 1.0000499486923218
v -1 10 0.0001500000071246177
v -3 10 0.0001500000071246177
v -1 10 1.0000499486923218
v -3 10 1.9999500513076782
v -1 10 1.0000499486923218
v -3 10 1.0000499486923218
v -1 10 1.9999500513076782
v -3 10 3.0000500679016113
v -1 10 1.9999500513076782
v -3 10 1.9999500513076782
v -1 10 2.9999165534973145
v -1 10 2.9999165534973145
v 0 10 2
v -1 10 1.9999500513076782
v 0 10 3
v 0 10 2
v 1 10 1.0000499486923218
v 0 10 1.000100016593933
v 1 10 1.9999834299087524
v -1 10 1.0000499486923218
v 0 10 0.00019999999494757503
v -1 10 0.0001500000071246177
v 0 10 1.000100016593933
v 0 10 0.00019999999494757503
v 1 10 -0.999750018119812
v 0 10 -0.9997000098228455
v 1 10 0.00011668100341921672
v -1 10 -0.999750018119812
v 0 10 -1.9996000528335571
v -1 10 -1.999650001525879
v 0 10 -0.9997000098228455
v 0 10 -1.9996000528335571
v 1 10 -2.999850034713745
v 0 10 -2.9999499320983887
v 1 10 -1.999750018119812
v -1 10 -1.999650001525879
v 0 10 -2.9999499320983887
v -1 10 -2.9999499320983887
v 0 10 -1.9996000528335571
v 0 10 -0.9997000098228455
v 1 10 -1.999750018119812
v 0 10 -1.9996000528335571
v 1 10 -0.999750018119812
v -1 10 0.0001500000071246177
v 0 10 -0.9997000098228455
v -1 10 -0.999750018119812
v 0 10 0.00019999999494757503
v 0 10 1.000100016593933
v 1 10 0.00011668100341921672
v 0 10 0.00019999999494757503
v 1 10 1.0000499486923218
v -1 10 1.9999500513076782
v 0 10 1.000100016593933
v -1 10 1.0000499486923218
v 0 10 2
v 0 10 3
v 1 10 1.9999834299087524
v 0 10 2
v 1 10 2.9999165534973145
vt 0.859375 0.859375
vt 0.90625 0.90625
vt 0.859375 0.90625
vt 0.90625 0.859375
vt 0.734375 0.9375
vt 0.75 0.953125
vt 0.734375 0.953125
vt 0.75 0.9375
vt 0.890625 0.96875
vt 0.90625 0.984375
vt 0.890625 0.984375
vt 0.90625 0.96875
vt 0.8125 0.96875
vt 0.84375 0.984375
vt 0.8125 0.984375
vt 0.84375 0.96875
vt 0.734375 0.96875
vt 0.765625 0.984375
vt 0.734375 0.984375
vt 0.765625 0.96875
vt 0.875 0.96875
vt 0.875 0.984375
vt 0.765625 0.9375
vt 0.859375 0.953125
vt 0.765625 0.953125
vt 0.859375 0.9375
vt 0.953125 0.796875
vt 0.984375 0.8125
vt 0.953125 0.8125
vt 0.984375 0.796875
vt 0.9375 0.796875
vt 0.96875 0.8125
vt 0.9375 0.8125
vt 0.96875 0.796875
vt 0.9375 0.765625
vt 0.953125 0.78125
vt 0.9375 0.78125
vt 0.953125 0.765625
vn 0 0 1
vn -1 0 0
vn 0 0 -1
vn 1 0 0
vn 0 1 0
g Scene
usemtl mainlev_build
f 1/1/1 3/2/1 2/3/1
f 1/1/1 4/4/1 3/2/1
f 5/1/1 6/2/1 7/3/1
f 5/1/1 8/4/1 6/2/1
f 9/1/1 10/2/1 11/3/1
f 9/1/1 12/4/1 10/2/1
f 13/1/1 14/2/1 15/3/1
f 13/1/1 16/4/1 14/2/1
f 17/1/1 18/2/1 19/3/1
f 17/1/1 20/4/1 18/2/1
f 21/1/1 22/2/1 23/3/1
f 21/1/1 24/4/1 22/2/1
f 25/1/2 26/2/2 27/3/2
f 25/1/2 28/4/2 26/2/2
f 29/1/2 30/2/2 31/3/2
f 29/1/2 32/4/2 30/2/2
f 33/1/2 34/2/2 35/3/2
f 33/1/2 36/4/2 34/2/2
f 37/1/2 38/2/2 39/3/2
f 37/1/2 40/4/2 38/2/2
f 41/1/2 42/2/2 43/3/2
f 41/1/2 44/4/2 42/2/2
f 45/1/2 46/2/2 47/3/2
f 45/1/2 48/4/2 46/2/2
f 49/1/3 50/2/3 51/3/3
f 49/1/3 52/4/3 50/2/3
f 53/1/3 54/2/3 55/3/3
f 53/1/3 56/4/3 54/2/3
f 57/1/3 58/2/3 59/3/3
f 57/1/3 60/4/3 58/2/3
f 61/1/3 62/2/3 63/3/3
f 61/1/3 64/4/3 62/2/3
f 65/1/3 66/2/3 67/3/3
f 65/1/3 68/4/3 66/2/3
f 69/1/3 70/2/3 71/3/3
f 69/1/3 72/4/3 70/2/3
f 73/1/4 74/2/4 75/3/4
f 73/1/4 76/4/4 74/2/4
f 77/1/4 78/2/4 79/3/4
f 77/1/4 80/4/4 78/2/4
f 81/1/4 82/2/4 83/3/4
f 81/1/4 84/4/4 82/2/4
f 85/1/4 86/2/4 87/3/4
f 85/1/4 88/4/4 86/2/4
f 89/1/4 90/2/4 91/3/4
f 89/1/4 92/4/4 90/2/4
f 93/1/4 94/2/4 95/3/4
f 93/1/4 96/4/4 94/2/4
f 97/5/1 98/6/1 99/7/1
f 97/5/1 100/8/1 98/6/1
f 101/8/2 102/7/2 103/6/2
f 101/8/2 104/5/2 102/7/2
f 105/5/2 106/6/2 107/7/2
f 105/5/2 108/8/2 106/6/2
f 109/9/1 110/10/1 111/11/1
f 109/9/1 112/12/1 110/10/1
f 113/13/4 114/14/4 115/15/4
f 113/13/4 116/16/4 114/14/4
f 117/17/4 118/18/4 119/19/4
f 117/17/4 120/20/4 118/18/4
f 121/21/4 122/10/4 123/22/4
f 121/21/4 124/12/4 122/10/4
f 125/16/4 126/22/4 127/14/4
f 125/16/4 128/21/4 126/22/4
f 129/16/3 130/10/3 131/14/3
f 129/16/3 132/12/3 130/10/3
f 133/17/3 134/18/3 135/19/3
f 133/17/3 136/20/3 134/18/3
f 137/13/3 138/14/3 139/15/3
f 137/13/3 140/16/3 138/14/3
f 141/23/2 142/24/2 143/25/2
f 141/23/2 144/26/2 142/24/2
f 145/23/1 146/24/1 147/25/1
f 145/23/1 148/26/1 146/24/1
f 149/27/5 150/28/5 151/29/5
f 149/27/5 152/30/5 150/28/5
f 153/27/5 154/28/5 155/29/5
f 153/27/5 156/30/5 154/28/5
f 157/27/5 158/28/5 159/29/5
f 157/27/5 160/30/5 158/28/5
f 161/27/5 162/28/5 163/29/5
f 161/27/5 164/30/5 162/28/5
f 165/27/5 166/28/5 167/29/5
f 165/27/5 168/30/5 166/28/5
f 169/31/5 170/32/5 171/33/5
f 169/31/5 172/34/5 170/32/5
f 173/31/5 174/32/5 175/33/5
f 173/31/5 176/34/5 174/32/5
f 177/27/5 178/28/5 179/29/5
f 177/27/5 180/30/5 178/28/5
f 181/31/5 182/32/5 183/33/5
f 181/31/5 184/34/5 182/32/5
f 185/31/5 186/32/5 187/33/5
f 185/31/5 188/34/5 186/32/5
f 189/31/5 190/32/5 191/33/5
f 189/31/5 192/34/5 190/32/5
f 193/31/5 194/32/5 195/33/5
f 193/31/5 196/34/5 194/32/5
f 197/35/5 198/36/5 199/37/5
f 197/35/5 200/38/5 198/36/5
f 201/38/5 202/37/5 203/36/5
f 201/38/5 204/35/5 202/37/5
f 205/35/5 206/36/5 207/37/5
f 205/35/5 208/38/5 206/36/5
f 209/38/5 210/37/5 211/36/5
f 209/38/5 212/35/5 210/37/5
f 213/35/5 214/36/5 215/37/5
f 213/35/5 216/38/5 214/36/5
f 217/38/5 218/37/5 219/36/5
f 217/38/5 220/35/5 218/37/5
f 221/34/5 222/29/5 223/32/5
f 221/34/5 224/27/5 222/29/5
f 225/34/5 226/29/5 227/32/5
f 225/34/5 228/27/5 226/29/5
f 229/34/5 230/29/5 231/32/5
f 229/34/5 232/27/5 230/29/5
f 233/34/5 234/29/5 235/32/5
f 233/34/5 236/27/5 234/29/5
f 237/34/5 238/29/5 239/32/5
f 237/34/5 240/27/5 238/29/5
f 241/34/5 242/29/5 243/32/5
f 241/34/5 244/27/5 242/29/5
